<svg width="78" height="25" viewBox="0 0 78 25" fill="none" xmlns="http://www.w3.org/2000/svg">
<path d="M31.8234 11.5782C29.8042 11.0836 29.4444 10.7376 29.4444 10.0083C29.4444 9.3202 30.077 8.85677 31.0159 8.85677C31.9262 8.85677 32.8296 9.20885 33.7765 9.93308C33.8051 9.95515 33.8407 9.96318 33.8763 9.95816C33.8937 9.95541 33.9104 9.9491 33.9253 9.93962C33.9403 9.93013 33.9532 9.91767 33.9633 9.90299L34.9496 8.47659C34.9691 8.4483 34.9774 8.41361 34.9728 8.37941C34.9682 8.34522 34.9511 8.31402 34.9249 8.29203C33.7982 7.36416 32.5291 6.91378 31.0456 6.91378C28.8653 6.91378 27.3422 8.25591 27.3422 10.1768C27.3422 12.2372 28.6567 12.9654 30.927 13.5292C32.8592 13.9856 33.1854 14.3688 33.1854 15.0529C33.1854 15.8102 32.5262 16.2817 31.4647 16.2817C30.2855 16.2817 29.3239 15.8744 28.2485 14.9185C28.2354 14.9066 28.22 14.8975 28.2033 14.8918C28.1866 14.8861 28.169 14.8839 28.1515 14.8853C28.1339 14.8867 28.1168 14.8917 28.1012 14.9C28.0856 14.9083 28.0719 14.9197 28.0607 14.9335L26.9547 16.2837C26.9322 16.3106 26.921 16.3454 26.9234 16.3806C26.9258 16.4158 26.9416 16.4487 26.9676 16.4722C28.2199 17.6188 29.7587 18.2236 31.4192 18.2236C33.7695 18.2236 35.2877 16.9066 35.2877 14.8683C35.2877 13.145 34.2845 12.1921 31.8234 11.5782ZM42.31 13.8873C42.31 15.3418 41.4363 16.3579 40.185 16.3579C38.9496 16.3579 38.0165 15.2966 38.0165 13.8873C38.0165 12.4789 38.9486 11.4177 40.186 11.4177C41.4165 11.4177 42.31 12.4559 42.31 13.8873ZM40.6041 9.53385C39.5861 9.53385 38.7499 9.94613 38.061 10.7897V9.8408C38.0613 9.80506 38.0476 9.77066 38.023 9.7451C37.9984 9.71955 37.9648 9.70491 37.9296 9.70438H36.1209C36.1033 9.70451 36.086 9.70814 36.0699 9.71507C36.0537 9.722 36.0391 9.73208 36.0268 9.74475C36.0145 9.75742 36.0048 9.77242 35.9982 9.7889C35.9916 9.80538 35.9883 9.82302 35.9884 9.8408V20.3873C35.9884 20.4626 36.0477 20.5237 36.1209 20.5237H37.9296C37.9648 20.5232 37.9984 20.5086 38.023 20.483C38.0476 20.4575 38.0613 20.4231 38.061 20.3873V17.0581C38.7509 17.8515 39.5861 18.2387 40.6041 18.2387C42.4968 18.2387 44.4123 16.7441 44.4123 13.8873C44.4123 11.0295 42.4968 9.53385 40.6041 9.53385ZM49.3235 16.3729C48.0267 16.3729 47.0502 15.3046 47.0502 13.8873C47.0502 12.4649 47.9931 11.4317 49.2938 11.4317C50.5985 11.4317 51.5819 12.501 51.5819 13.9194C51.5819 15.3408 50.6331 16.3729 49.3235 16.3729ZM49.3235 9.53486C46.8862 9.53486 44.9766 11.4608 44.9766 13.9184C44.9766 16.3499 46.8733 18.2557 49.2938 18.2557C51.739 18.2557 53.6545 16.3368 53.6545 13.8873C53.6545 11.4468 51.7529 9.53385 49.3235 9.53385V9.53486ZM58.8592 9.70438H56.8697V7.61795C56.8699 7.60013 56.8667 7.58243 56.8601 7.56589C56.8536 7.54935 56.8439 7.5343 56.8316 7.5216C56.8192 7.50891 56.8046 7.49883 56.7884 7.49195C56.7722 7.48507 56.7548 7.48152 56.7372 7.48153H54.9285C54.8935 7.48205 54.86 7.49655 54.8354 7.52189C54.8108 7.54723 54.797 7.58137 54.797 7.61694V9.70438H53.9273C53.9098 9.70451 53.8925 9.70815 53.8764 9.71509C53.8604 9.72203 53.8458 9.73213 53.8336 9.74481C53.8213 9.75749 53.8117 9.7725 53.8052 9.78898C53.7988 9.80545 53.7956 9.82306 53.7958 9.8408V11.4357C53.7958 11.5099 53.8551 11.5711 53.9273 11.5711H54.797V15.6969C54.797 17.364 55.6055 18.2096 57.2008 18.2096C57.8491 18.2096 58.3868 18.0722 58.8948 17.7763C58.9152 17.7644 58.9322 17.7474 58.944 17.7268C58.9558 17.7061 58.962 17.6827 58.962 17.6589V16.1402C58.962 16.1171 58.9561 16.0944 58.9451 16.0743C58.934 16.0541 58.9181 16.0371 58.8988 16.0249C58.8797 16.0128 58.8578 16.0059 58.8353 16.0048C58.8128 16.0038 58.7904 16.0086 58.7703 16.0188C58.4214 16.1994 58.0853 16.2817 57.7088 16.2817C57.1286 16.2817 56.8687 16.0108 56.8687 15.406V11.5701H58.8592C58.8768 11.57 58.8941 11.5664 58.9102 11.5594C58.9264 11.5525 58.941 11.5424 58.9533 11.5298C58.9656 11.5171 58.9753 11.5021 58.9819 11.4856C58.9885 11.4691 58.9918 11.4515 58.9917 11.4337V9.83879C58.9918 9.82106 58.9885 9.80347 58.9819 9.78705C58.9753 9.77062 58.9655 9.75569 58.9532 9.7431C58.9409 9.73051 58.9263 9.72052 58.9101 9.7137C58.894 9.70689 58.8767 9.70338 58.8592 9.70338V9.70438ZM65.7926 9.71241V9.45662C65.7926 8.70229 66.0743 8.36525 66.7069 8.36525C67.0834 8.36525 67.3869 8.44249 67.7259 8.55885C67.7458 8.56532 67.7669 8.56688 67.7876 8.56339C67.8082 8.5599 67.8277 8.55146 67.8445 8.53879C67.8617 8.52619 67.8757 8.5096 67.8853 8.49041C67.8949 8.47122 67.8999 8.44998 67.8998 8.42845V6.86563C67.9001 6.83654 67.891 6.80815 67.8741 6.78466C67.8572 6.76118 67.8333 6.74384 67.8059 6.73523C67.3194 6.58322 66.8126 6.50877 66.3036 6.51455C64.6333 6.51455 63.7497 7.47952 63.7497 9.30314V9.69635H62.8809C62.8457 9.69662 62.812 9.711 62.7872 9.73637C62.7624 9.76174 62.7485 9.79603 62.7485 9.83177V11.4347C62.7485 11.5099 62.8078 11.5711 62.8809 11.5711H63.7507V17.9348C63.7507 18.01 63.809 18.0702 63.8821 18.0702H65.6908C65.763 18.0702 65.8223 18.01 65.8223 17.9348V11.5701H67.5114L70.098 17.9317C69.8044 18.6008 69.5148 18.7342 69.1214 18.7342C68.8022 18.7342 68.4671 18.6359 68.1232 18.4433C68.1073 18.4346 68.0898 18.4292 68.0718 18.4275C68.0538 18.4257 68.0357 18.4277 68.0184 18.4333C68.0012 18.4395 67.9854 18.4491 67.9719 18.4617C67.9585 18.4743 67.9478 18.4896 67.9403 18.5065L67.3276 19.8858C67.3133 19.9168 67.3112 19.9522 67.3217 19.9848C67.3321 20.0174 67.3544 20.0447 67.3839 20.0613C67.9715 20.4033 68.6389 20.5787 69.3162 20.5689C70.6504 20.5689 71.3888 19.9309 72.0401 18.2136L75.1772 9.89697C75.1851 9.87633 75.1879 9.85406 75.1855 9.83206C75.1831 9.81005 75.1755 9.78896 75.1633 9.77058C75.1514 9.75244 75.1352 9.73756 75.1162 9.72724C75.0973 9.71693 75.0761 9.71149 75.0546 9.7114H73.1718C73.1441 9.71153 73.1172 9.72039 73.0947 9.73674C73.0722 9.75309 73.0553 9.77614 73.0462 9.80268L71.1179 15.4541L69.0058 9.79867C68.9965 9.77304 68.9797 9.75092 68.9576 9.73531C68.9355 9.71971 68.9092 9.71136 68.8823 9.7114H65.7926V9.71241ZM61.7729 9.70438H59.9642C59.929 9.70491 59.8954 9.71955 59.8708 9.7451C59.8462 9.77066 59.8325 9.80506 59.8328 9.8408V17.9348C59.8328 18.01 59.8921 18.0702 59.9652 18.0702H61.7739C61.8461 18.0702 61.9054 18.01 61.9054 17.9348V9.8398C61.9054 9.80406 61.8915 9.76976 61.8666 9.7444C61.8418 9.71903 61.8082 9.70464 61.7729 9.70438ZM60.8775 6.01902C60.5318 6.02114 60.2011 6.1624 59.958 6.41179C59.7148 6.66117 59.5792 6.99829 59.5807 7.34912C59.5798 7.523 59.6127 7.69536 59.6774 7.85636C59.7421 8.01736 59.8375 8.16384 59.958 8.28745C60.0785 8.41105 60.2218 8.50936 60.3797 8.57675C60.5377 8.64414 60.7071 8.6793 60.8785 8.68022C61.2243 8.6781 61.5552 8.5367 61.7983 8.2871C62.0415 8.03749 62.177 7.70012 62.1752 7.34912C62.1752 6.61385 61.5931 6.01902 60.8775 6.01902ZM76.7951 10.5099H76.464V10.9432H76.7951C76.9602 10.9432 77.059 10.8599 77.059 10.7265C77.059 10.5851 76.9602 10.5099 76.7951 10.5099ZM77.0096 11.1278L77.3704 11.6454H77.0659L76.7427 11.1709H76.464V11.6454H76.21V10.2741H76.805C77.1154 10.2741 77.3199 10.4376 77.3199 10.7115C77.3243 10.8067 77.2956 10.9005 77.2389 10.9765C77.1822 11.0526 77.1011 11.1061 77.0096 11.1278ZM76.7279 9.81873C76.0756 9.81873 75.5824 10.3504 75.5824 11.0014C75.5824 11.6514 76.0726 12.176 76.721 12.176C77.3733 12.176 77.8675 11.6444 77.8675 10.9934C77.8675 10.3433 77.3763 9.81873 76.7279 9.81873ZM76.721 12.3064C76.5529 12.306 76.3865 12.2719 76.2315 12.206C76.0764 12.1401 75.9357 12.0437 75.8175 11.9224C75.6993 11.8012 75.6058 11.6573 75.5426 11.4993C75.4794 11.3412 75.4475 11.172 75.449 11.0014C75.449 10.2852 76.0123 9.68833 76.7279 9.68833C76.896 9.68872 77.0624 9.72285 77.2174 9.78874C77.3725 9.85464 77.5132 9.951 77.6314 10.0723C77.7496 10.1936 77.8431 10.3374 77.9063 10.4955C77.9696 10.6535 78.0014 10.8228 77.9999 10.9934C77.9999 11.7096 77.4366 12.3064 76.721 12.3064ZM19.0985 11.1382C15.2302 8.84115 8.85004 8.63001 5.15734 9.75061C4.56443 9.9307 3.93745 9.59586 3.75774 9.00285C3.57803 8.40967 3.91237 7.783 4.50579 7.60274C8.74454 6.31575 15.7911 6.56437 20.244 9.20775C20.7776 9.52438 20.9524 10.2133 20.6363 10.7458C20.3199 11.2793 19.6303 11.4549 19.0985 11.1382ZM17.6847 14.8488C14.4602 12.8664 9.54258 12.2923 5.72724 13.4502C5.23257 13.5996 4.71006 13.3208 4.55976 12.827C4.41084 12.3322 4.68965 11.8109 5.1838 11.6605C9.54206 10.3375 14.9602 10.9784 18.6638 13.2544C19.1038 13.5254 19.2424 14.1014 18.9717 14.5407C18.7003 14.981 18.1247 15.1191 17.6847 14.8488ZM16.475 18.0571C13.657 16.3349 10.1104 15.946 5.93306 16.9002C5.53058 16.9923 5.12966 16.7401 5.03782 16.3377C4.94546 15.9352 5.19677 15.5339 5.60011 15.4421C10.1715 14.3972 14.0923 14.8469 17.2554 16.7796C17.6079 16.9949 17.7191 17.4557 17.5034 17.8084C17.2879 18.1619 16.8275 18.2727 16.475 18.0571ZM0 12.4998C0 19.1277 5.37285 24.5 12 24.5C18.6277 24.5 24 19.1277 24 12.4998C24 5.87264 18.6277 0.5 12 0.5C5.37285 0.5 0 5.87264 0 12.4998Z" fill="white"/>
</svg>
