<svg width="16" height="17" viewBox="0 0 16 17" fill="none" xmlns="http://www.w3.org/2000/svg">
<path d="M15.25 8.5C15.25 8.69891 15.171 8.88968 15.0303 9.03033C14.8897 9.17098 14.6989 9.25 14.5 9.25H8.75V15C8.75 15.1989 8.67098 15.3897 8.53033 15.5303C8.38968 15.671 8.19891 15.75 8 15.75C7.80109 15.75 7.61032 15.671 7.46967 15.5303C7.32902 15.3897 7.25 15.1989 7.25 15V9.25H1.5C1.30109 9.25 1.11032 9.17098 0.96967 9.03033C0.829018 8.88968 0.75 8.69891 0.75 8.5C0.75 8.30109 0.829018 8.11032 0.96967 7.96967C1.11032 7.82902 1.30109 7.75 1.5 7.75H7.25V2C7.25 1.80109 7.32902 1.61032 7.46967 1.46967C7.61032 1.32902 7.80109 1.25 8 1.25C8.19891 1.25 8.38968 1.32902 8.53033 1.46967C8.67098 1.61032 8.75 1.80109 8.75 2V7.75H14.5C14.6989 7.75 14.8897 7.82902 15.0303 7.96967C15.171 8.11032 15.25 8.30109 15.25 8.5Z" fill="#A7A7A7"/>
</svg>
