<svg width="16" height="17" viewBox="0 0 16 17" fill="none" xmlns="http://www.w3.org/2000/svg">
<path d="M16 8.94992C15.9998 7.42113 15.5615 5.92442 14.737 4.63698C13.9126 3.34955 12.7365 2.32529 11.3481 1.68548C9.95962 1.04567 8.4169 0.817089 6.90257 1.02681C5.38823 1.23652 3.9657 1.87576 2.80337 2.86882C1.64104 3.86189 0.787596 5.16721 0.344069 6.63024C-0.099457 8.09328 -0.114491 9.65277 0.300748 11.1241C0.715987 12.5954 1.54411 13.9169 2.68708 14.9322C3.83004 15.9475 5.23999 16.614 6.75 16.8529V11.2629H4.719V8.94992H6.75V7.18692C6.75 5.18192 7.944 4.07492 9.772 4.07492C10.647 4.07492 11.562 4.23092 11.562 4.23092V6.19992H10.554C9.56 6.19992 9.25 6.81692 9.25 7.44992V8.94992H11.469L11.114 11.2629H9.25V16.8529C11.1317 16.5548 12.8454 15.5951 14.0827 14.1464C15.32 12.6977 15.9999 10.8551 16 8.94992Z" fill="white"/>
</svg>
