<svg width="24" height="25" viewBox="0 0 24 25" fill="none" xmlns="http://www.w3.org/2000/svg">
  <path
    d="M13.5 2.01501C13.0439 1.7517 12.5266 1.61308 12 1.61308C11.4734 1.61308 10.9561 1.7517 10.5 2.01501L3 6.34501C2.69597 6.52054 2.4435 6.77301 2.26796 7.07704C2.09243 7.38106 2.00001 7.72594 2 8.07701V21.5C2 21.7652 2.10536 22.0196 2.29289 22.2071C2.48043 22.3947 2.73478 22.5 3 22.5H9C9.26522 22.5 9.51957 22.3947 9.70711 22.2071C9.89464 22.0196 10 21.7652 10 21.5V15.5H14V21.5C14 21.7652 14.1054 22.0196 14.2929 22.2071C14.4804 22.3947 14.7348 22.5 15 22.5H21C21.2652 22.5 21.5196 22.3947 21.7071 22.2071C21.8946 22.0196 22 21.7652 22 21.5V8.07701C22 7.72594 21.9076 7.38106 21.732 7.07704C21.5565 6.77301 21.304 6.52054 21 6.34501L13.5 2.01501Z"
    fill="white" />
</svg>