<svg width="24" height="25" viewBox="0 0 24 25" fill="none" xmlns="http://www.w3.org/2000/svg">
<path d="M3 22.5C2.73478 22.5 2.48043 22.3946 2.29289 22.2071C2.10536 22.0196 2 21.7652 2 21.5V3.5C2 3.23478 2.10536 2.98043 2.29289 2.79289C2.48043 2.60536 2.73478 2.5 3 2.5C3.26522 2.5 3.51957 2.60536 3.70711 2.79289C3.89464 2.98043 4 3.23478 4 3.5V21.5C4 21.7652 3.89464 22.0196 3.70711 22.2071C3.51957 22.3946 3.26522 22.5 3 22.5ZM15.5 2.634C15.348 2.54623 15.1755 2.50003 15 2.50003C14.8245 2.50002 14.652 2.54623 14.5 2.63399C14.348 2.72176 14.2218 2.84799 14.134 3.00001C14.0462 3.15202 14 3.32447 14 3.5V21.5C14 21.7652 14.1054 22.0196 14.2929 22.2071C14.4804 22.3946 14.7348 22.5 15 22.5H21C21.2652 22.5 21.5196 22.3946 21.7071 22.2071C21.8946 22.0196 22 21.7652 22 21.5V6.964C22 6.78847 21.9538 6.61603 21.866 6.46401C21.7782 6.312 21.652 6.18577 21.5 6.098L15.5 2.634ZM9 2.5C8.73478 2.5 8.48043 2.60536 8.29289 2.79289C8.10536 2.98043 8 3.23478 8 3.5V21.5C8 21.7652 8.10536 22.0196 8.29289 22.2071C8.48043 22.3946 8.73478 22.5 9 22.5C9.26522 22.5 9.51957 22.3946 9.70711 22.2071C9.89464 22.0196 10 21.7652 10 21.5V3.5C10 3.23478 9.89464 2.98043 9.70711 2.79289C9.51957 2.60536 9.26522 2.5 9 2.5Z" fill="#A7A7A7"/>
</svg>
