<svg width="16" height="17" viewBox="0 0 16 17" fill="none" xmlns="http://www.w3.org/2000/svg">
<path d="M4.97 0.969996C4.82955 1.11062 4.75066 1.30125 4.75066 1.5C4.75066 1.69875 4.82955 1.88937 4.97 2.03L11.44 8.5L4.97 14.97C4.89631 15.0387 4.83721 15.1215 4.79622 15.2135C4.75523 15.3055 4.73319 15.4048 4.73141 15.5055C4.72963 15.6062 4.74816 15.7062 4.78588 15.7996C4.8236 15.893 4.87974 15.9778 4.95096 16.049C5.02218 16.1203 5.10701 16.1764 5.2004 16.2141C5.29379 16.2518 5.39382 16.2704 5.49452 16.2686C5.59523 16.2668 5.69454 16.2448 5.78654 16.2038C5.87854 16.1628 5.96134 16.1037 6.03 16.03L13.56 8.5L6.03 0.969996C5.88938 0.829546 5.69875 0.750656 5.5 0.750656C5.30125 0.750656 5.11063 0.829546 4.97 0.969996Z" fill="white"/>
</svg>
