<svg width="16" height="17" viewBox="0 0 16 17" fill="none" xmlns="http://www.w3.org/2000/svg">
<path d="M11.03 0.969996C11.1705 1.11062 11.2493 1.30125 11.2493 1.5C11.2493 1.69875 11.1705 1.88937 11.03 2.03L4.56 8.5L11.03 14.97C11.1037 15.0387 11.1628 15.1215 11.2038 15.2135C11.2448 15.3055 11.2668 15.4048 11.2686 15.5055C11.2704 15.6062 11.2518 15.7062 11.2141 15.7996C11.1764 15.893 11.1203 15.9778 11.049 16.049C10.9778 16.1203 10.893 16.1764 10.7996 16.2141C10.7062 16.2518 10.6062 16.2704 10.5055 16.2686C10.4048 16.2668 10.3055 16.2448 10.2135 16.2038C10.1215 16.1628 10.0387 16.1037 9.97 16.03L2.44 8.5L9.97 0.969996C10.1106 0.829546 10.3013 0.750656 10.5 0.750656C10.6988 0.750656 10.8894 0.829546 11.03 0.969996Z" fill="white"/>
</svg>
