<svg width="16" height="17" viewBox="0 0 16 17" fill="none" xmlns="http://www.w3.org/2000/svg">
<path d="M8 2.39C10.136 2.39 10.389 2.399 11.233 2.437C12.013 2.473 12.436 2.603 12.718 2.713C13.066 2.841 13.381 3.045 13.639 3.311C13.905 3.569 14.109 3.884 14.238 4.232C14.348 4.514 14.478 4.938 14.513 5.717C14.552 6.561 14.56 6.814 14.56 8.95C14.56 11.086 14.552 11.339 14.513 12.182C14.478 12.962 14.347 13.386 14.238 13.668C14.1047 14.0128 13.9007 14.3259 13.6393 14.5873C13.3779 14.8487 13.0648 15.0526 12.72 15.186C12.438 15.296 12.014 15.426 11.234 15.461C10.391 15.5 10.137 15.508 8.001 15.508C5.865 15.508 5.611 15.5 4.769 15.461C3.989 15.426 3.565 15.296 3.283 15.186C2.93503 15.0578 2.62029 14.8531 2.362 14.587C2.09603 14.329 1.89134 14.0146 1.763 13.667C1.653 13.385 1.523 12.961 1.488 12.181C1.45 11.337 1.441 11.085 1.441 8.949C1.441 6.813 1.45 6.559 1.488 5.716C1.524 4.936 1.654 4.513 1.763 4.231C1.892 3.883 2.096 3.568 2.362 3.31C2.62028 3.04437 2.93459 2.83973 3.282 2.711C3.565 2.601 3.989 2.471 4.769 2.436C5.612 2.398 5.865 2.389 8.001 2.389L8 2.39ZM8.001 0.947998C5.829 0.947998 5.556 0.957998 4.703 0.995998C3.849 1.036 3.268 1.172 2.76 1.369C2.22625 1.57013 1.74272 1.8851 1.343 2.292C0.936 2.692 0.621 3.175 0.42 3.709C0.222 4.217 0.087 4.799 0.048 5.651C0.01 6.502 0 6.776 0 8.95C0 11.122 0.01 11.395 0.048 12.248C0.088 13.101 0.222 13.681 0.42 14.189C0.62 14.723 0.936 15.206 1.343 15.606C1.743 16.013 2.226 16.328 2.76 16.529C3.268 16.727 3.85 16.862 4.702 16.901C5.554 16.94 5.828 16.949 8.001 16.949C10.173 16.949 10.446 16.939 11.299 16.901C12.152 16.861 12.732 16.727 13.239 16.529C13.7706 16.3237 14.2534 16.0094 14.6564 15.6064C15.0594 15.2034 15.3737 14.7206 15.579 14.189C15.778 13.681 15.913 13.099 15.952 12.247C15.991 11.396 16 11.122 16 8.949C16 6.776 15.99 6.504 15.952 5.651C15.912 4.798 15.778 4.218 15.58 3.711C15.3791 3.17684 15.0641 2.69292 14.657 2.293C14.2573 1.8861 13.7737 1.57113 13.24 1.37C12.732 1.173 12.15 1.037 11.298 0.998998C10.447 0.957998 10.173 0.948998 8 0.948998L8.001 0.947998Z" fill="white"/>
<path d="M8.00003 4.84199C6.91052 4.84199 5.86563 5.2748 5.09523 6.0452C4.32483 6.8156 3.89203 7.86048 3.89203 8.94999C3.89203 10.0395 4.32483 11.0844 5.09523 11.8548C5.86563 12.6252 6.91052 13.058 8.00003 13.058C9.08954 13.058 10.1344 12.6252 10.9048 11.8548C11.6752 11.0844 12.108 10.0395 12.108 8.94999C12.108 7.86048 11.6752 6.8156 10.9048 6.0452C10.1344 5.2748 9.08954 4.84199 8.00003 4.84199ZM8.00003 11.617C7.64538 11.6239 7.29293 11.5599 6.96328 11.429C6.63363 11.298 6.3334 11.1026 6.08017 10.8542C5.82693 10.6058 5.62577 10.3095 5.48844 9.98241C5.35111 9.65536 5.28038 9.30421 5.28038 8.94949C5.28038 8.59478 5.35111 8.24363 5.48844 7.91658C5.62577 7.58952 5.82693 7.29314 6.08017 7.04476C6.3334 6.79638 6.63363 6.60099 6.96328 6.47002C7.29293 6.33905 7.64538 6.27513 8.00003 6.28199C8.69855 6.29552 9.3639 6.5825 9.85311 7.08128C10.3423 7.58006 10.6164 8.25084 10.6164 8.94949C10.6164 9.64815 10.3423 10.3189 9.85311 10.8177C9.3639 11.3165 8.69855 11.6035 8.00003 11.617ZM12.27 5.63899C12.5246 5.63899 12.7688 5.53785 12.9489 5.35782C13.1289 5.17778 13.23 4.9336 13.23 4.67899C13.23 4.42439 13.1289 4.18021 12.9489 4.00017C12.7688 3.82014 12.5246 3.71899 12.27 3.71899C12.0154 3.71899 11.7712 3.82014 11.5912 4.00017C11.4112 4.18021 11.31 4.42439 11.31 4.67899C11.31 4.9336 11.4112 5.17778 11.5912 5.35782C11.7712 5.53785 12.0154 5.63899 12.27 5.63899Z" fill="white"/>
</svg>
