<svg width="17" height="17" viewBox="0 0 17 17" fill="none" xmlns="http://www.w3.org/2000/svg">
<path d="M8.15199 16.5H7.99999C5.88494 16.4799 3.86391 15.623 2.37897 14.1168C0.894031 12.6105 0.0660321 10.5775 0.0760791 8.46237C0.0861262 6.34724 0.933402 4.32217 2.43259 2.83009C3.93177 1.33801 5.96084 0.500366 8.07599 0.500366C10.1911 0.500366 12.2202 1.33801 13.7194 2.83009C15.2186 4.32217 16.0659 6.34724 16.0759 8.46237C16.0859 10.5775 15.2579 12.6105 13.773 14.1168C12.2881 15.623 10.267 16.4799 8.15199 16.5ZM7.74199 2.29801C7.51599 2.57101 7.27899 3.01101 7.06499 3.62101C6.69599 4.67601 6.43899 6.11701 6.37799 7.75001H9.92499C9.86499 6.11701 9.60699 4.67601 9.23799 3.62101C9.02499 3.01101 8.78799 2.57101 8.56199 2.29801C8.36799 2.06301 8.23599 2.01301 8.17699 2.00201H8.13299C8.07799 2.00901 7.94299 2.05401 7.74199 2.29801ZM4.87699 7.75001C4.93899 5.97901 5.21699 4.36401 5.64999 3.12601C5.74899 2.84201 5.85799 2.57201 5.97899 2.32001C4.79831 2.70711 3.75315 3.42417 2.96706 4.38641C2.18096 5.34865 1.6868 6.51584 1.54299 7.75001H4.87699ZM1.54299 9.25C1.6868 10.4842 2.18096 11.6514 2.96706 12.6136C3.75315 13.5758 4.79831 14.2929 5.97899 14.68C5.85439 14.4176 5.74422 14.1485 5.64899 13.874C5.21599 12.636 4.93899 11.021 4.87699 9.25H1.54299ZM6.37799 9.25C6.43899 10.883 6.69599 12.324 7.06499 13.379C7.27899 13.989 7.51599 14.429 7.74199 14.702C7.94399 14.946 8.07799 14.992 8.13299 14.999L8.17699 14.998C8.23699 14.988 8.36699 14.937 8.56199 14.702C8.78799 14.429 9.02499 13.989 9.23799 13.379C9.60799 12.324 9.86399 10.883 9.92499 9.25H6.37799ZM11.426 9.25C11.365 11.021 11.087 12.636 10.654 13.874C10.572 14.109 10.483 14.334 10.386 14.548C11.4802 14.1155 12.4367 13.3945 13.1535 12.4615C13.8704 11.5286 14.3209 10.4187 14.457 9.25H11.427H11.426ZM14.457 7.75001C14.3208 6.58137 13.8703 5.47153 13.1534 4.5386C12.4365 3.60567 11.4801 2.88455 10.386 2.45201C10.483 2.66601 10.572 2.89201 10.654 3.12601C11.087 4.36401 11.365 5.97901 11.426 7.75001H14.457Z" fill="white"/>
</svg>
