<svg width="24" height="25" viewBox="0 0 24 25" fill="none" xmlns="http://www.w3.org/2000/svg">
  <path
    d="M10.533 1.77893C5.35215 1.77893 1.12598 5.91887 1.12598 11.0579C1.12598 16.197 5.35215 20.3369 10.533 20.3369C12.767 20.3369 14.8235 19.5671 16.4402 18.2794L20.7929 22.632C21.1834 23.0226 21.8166 23.0226 22.2071 22.632C22.5976 22.2415 22.5976 21.6083 22.2071 21.2178L17.8634 16.8741C19.1616 15.2849 19.94 13.2634 19.94 11.0579C19.94 5.91887 15.7138 1.77893 10.533 1.77893ZM3.12598 11.0579C3.12598 7.05226 6.42768 3.77893 10.533 3.77893C14.6383 3.77893 17.94 7.05226 17.94 11.0579C17.94 15.0636 14.6383 18.3369 10.533 18.3369C6.42768 18.3369 3.12598 15.0636 3.12598 11.0579Z"
    fill="#B3B3B3" />
</svg>
  