<svg width="16" height="17" viewBox="0 0 16 17" fill="none" xmlns="http://www.w3.org/2000/svg">
<path d="M13.54 4.83894C14.1788 4.46393 14.6542 3.86362 14.873 3.15594C14.2781 3.51275 13.6252 3.76253 12.944 3.89394C12.6641 3.59265 12.325 3.35231 11.948 3.18794C11.5644 3.01851 11.1493 2.93196 10.73 2.93394C10.331 2.92783 9.935 3.00356 9.56642 3.15646C9.19783 3.30936 8.8645 3.53619 8.587 3.82294C8.29982 4.10158 8.07277 4.4361 7.91987 4.80588C7.76697 5.17566 7.69146 5.57285 7.698 5.97294C7.698 6.18494 7.725 6.41494 7.778 6.66394C6.56325 6.60683 5.37502 6.28897 4.294 5.73194C3.2261 5.18687 2.28499 4.42295 1.532 3.48994C1.26057 3.95152 1.11795 4.47747 1.119 5.01294C1.119 5.53194 1.239 6.01294 1.48 6.45794C1.72 6.90294 2.05 7.26294 2.468 7.53794C1.98621 7.53038 1.51406 7.40177 1.095 7.16394V7.20394C1.095 7.92894 1.325 8.56894 1.785 9.12394C2.22355 9.66671 2.83922 10.0377 3.524 10.1719C3.07973 10.2976 2.61208 10.3168 2.159 10.2279C2.34387 10.8287 2.71643 11.3544 3.222 11.7279C3.73083 12.1159 4.35216 12.3276 4.992 12.3309C3.9228 13.1862 2.59112 13.6461 1.222 13.6329C0.979 13.6329 0.738 13.6169 0.5 13.5849C1.88259 14.4861 3.49967 14.9608 5.15 14.9499C6.055 14.9499 6.913 14.8299 7.722 14.5889C8.532 14.3489 9.248 14.0189 9.869 13.6009C10.488 13.1855 11.0533 12.6951 11.552 12.1409C12.052 11.5849 12.463 10.9859 12.786 10.3429C13.1052 9.70978 13.3527 9.04299 13.524 8.35494C13.7236 7.56153 13.8065 6.74326 13.77 5.92594C14.361 5.49809 14.8716 4.96891 15.278 4.36294C14.718 4.61194 14.138 4.76994 13.54 4.83894Z" fill="white"/>
</svg>
